<svg xmlns="http://www.w3.org/2000/svg"
           xmlns:xlink="http://www.w3.org/1999/xlink"
           display="none"
           width="0"
           height="0"><defs>
<symbol id="attention" viewBox="0 0 1000 1000"><path d="M571 767V661q0-8-5-13t-12-5H446q-7 0-12 5t-5 13v106q0 8 5 13t12 6h108q7 0 12-6t5-13zm-1-208l10-257q0-6-5-10-7-6-14-6H439q-6 0-14 6-5 4-5 12l9 255q0 5 6 9t13 3h103q8 0 14-3t5-9zm-7-522l428 786q20 35-1 70-9 17-26 26t-35 10H71q-18 0-35-10t-26-26q-21-35-1-70L438 37q9-17 26-27t36-10 36 10 27 27z"/></symbol>
<symbol id="block" viewBox="0 0 857.1 1000"><path d="M732 498q0-90-48-164L263 754q76 50 166 50 62 0 118-25t96-65 65-97 24-119zM175 665l421-421q-75-50-167-50-83 0-153 40T166 345t-41 153q0 91 50 167zm682-167q0 88-34 168t-91 137-137 92-166 34-167-34-137-92-91-137T0 498t34-167 91-137 137-91 167-34 166 34 137 91 91 137 34 167z"/></symbol>
<symbol id="brush" viewBox="0 0 928 1000"><path d="M464 648q0 124-87 212t-210 87q-81 0-149-40 68-39 109-108t40-151q0-61 44-105t105-44 105 44 43 105zM879 86q32 32 32 79t-33 79L560 562q-20-55-61-97t-97-62L720 85q32-32 79-32t80 33z"/></symbol>
<symbol id="cancel-circled" viewBox="0 0 857.1 1000"><path d="M641 626q0-14-10-25L530 500l101-101q10-11 10-25 0-15-10-26l-51-50q-10-11-25-11t-25 11L429 399 328 298q-11-11-25-11-16 0-26 11l-50 50q-11 11-11 26 0 14 11 25l101 101-101 101q-11 11-11 25 0 15 11 26l50 50q10 11 26 11 14 0 25-11l101-101 101 101q10 11 25 11t25-11l51-50q10-11 10-26zm216-126q0 117-57 215T644 871t-215 58-216-58T58 715 0 500t58-215 155-156 216-58 215 58 156 156 57 215z"/></symbol>
<symbol id="cancel" viewBox="0 0 785.7 1000"><path d="M724 738q0 22-15 38l-76 76q-16 15-38 15t-38-15L393 687 229 852q-16 15-38 15t-38-15l-76-76q-16-16-16-38t16-38l164-164L77 372q-16-16-16-38t16-38l76-76q16-16 38-16t38 16l164 164 164-164q16-16 38-16t38 16l76 76q15 15 15 38t-15 38L545 536l164 164q15 15 15 38z"/></symbol>
<symbol id="ccw" viewBox="0 0 857.1 1000"><path d="M857 500q0 87-34 166t-91 137-137 92-166 34q-96 0-183-41T99 774q-4-6-4-13t5-11l76-77q6-5 14-5 9 1 13 7 41 53 100 82t126 29q58 0 110-23t92-61 61-91 22-111-22-111-61-91-92-61-110-23q-55 0-105 20t-90 57l77 77q17 16 8 38-10 23-33 23H36q-15 0-25-11T0 393V143q0-24 22-33 22-10 39 8l72 72q60-57 137-88t159-31q87 0 166 34t137 92 91 137 34 166z"/></symbol>
<symbol id="clock" viewBox="0 0 857.1 1000"><path d="M500 304v250q0 7-5 12t-13 5H304q-8 0-13-5t-5-12v-36q0-8 5-13t13-5h125V304q0-8 5-13t12-5h36q8 0 13 5t5 13zm232 196q0-83-41-152T581 237t-152-41-153 41-110 111-41 152 41 152 110 111 153 41 152-41 110-111 41-152zm125 0q0 117-57 215T644 871t-215 58-216-58T58 715 0 500t58-215 155-156 216-58 215 58 156 156 57 215z"/></symbol>
<symbol id="cog" viewBox="0 0 857.1 1000"><path d="M571 500q0-59-41-101t-101-42-101 42-42 101 42 101 101 42 101-42 41-101zm286-61v124q0 7-4 13t-11 7l-104 16q-10 30-21 51 19 27 59 77 6 6 6 13t-5 13q-15 21-55 61t-53 39q-7 0-14-5l-77-60q-25 13-51 21-9 76-16 104-4 16-20 16H367q-8 0-14-5t-6-12l-16-103q-27-9-50-21l-79 60q-6 5-14 5t-14-6q-70-64-92-94-4-5-4-13 0-6 5-12 8-12 28-37t30-40q-15-28-23-55L16 581q-7-1-11-7t-5-13V437q0-7 5-13t10-7l104-16q8-25 22-51-23-32-60-77-6-7-6-14 0-5 5-12 15-20 55-60t53-40q7 0 15 5l77 60q24-13 50-21 9-76 17-104 3-16 20-16h124q7 0 13 5t7 12l15 103q28 9 51 20l79-59q5-5 13-5 7 0 14 5 72 67 92 95 4 5 4 12t-4 13q-9 12-29 37t-30 40q15 28 23 54l102 16q7 1 12 7t4 13z"/></symbol>
<symbol id="down" viewBox="0 0 928 1000"><path d="M911 499L464 947 18 499l158-158 177 176V53h223v464l176-175z"/></symbol>
<symbol id="envelope-open" viewBox="0 0 1000 1000"><path d="M1000 365v546q0 37-26 63t-63 26H89q-36 0-63-26T0 911V365q0-8 6-13 5-4 22-20t23-20 26-21 39-31 53-40 80-60 108-79q2-2 29-22t40-29 36-20 38-10 39 10 36 20 39 29 29 22q62 45 108 79t80 60 54 40 39 31 25 21 23 20 22 20q6 5 6 13zM685 691q147-106 193-140 6-5 7-12t-4-13l-21-29q-4-6-12-7t-13 4q-129 94-192 139-2 2-29 22t-39 29-36 20-39 10-38-10-36-20-40-29-29-22q-104-74-192-139-6-5-13-4t-12 7l-21 29q-5 6-4 13t7 12q46 34 193 140 5 5 28 22t36 26 36 22 43 19 42 6 42-6 44-20 36-22 37-26 26-21z"/></symbol>
<symbol id="envelope" viewBox="0 0 1000 1000"><path d="M1000 396v443q0 37-26 63t-63 27H89q-36 0-63-27T0 839V396q25 27 56 49 202 137 278 192 32 24 51 37t53 27 61 13h2q28 0 61-13t53-27 51-37q95-68 278-192 32-22 56-49zm0-164q0 44-27 84t-68 69Q695 531 643 566q-5 4-23 17t-30 22-29 18-32 15-28 5h-2q-12 0-27-5t-32-15-30-18-30-22-23-17q-51-35-147-101T96 385q-35-23-65-64T0 244q0-43 23-72t66-29h822q36 0 63 26t26 63z"/></symbol>
<symbol id="filter" viewBox="0 0 785.7 1000"><path d="M783 165q9 22-8 39L500 479v414q0 23-22 33-7 3-14 3-15 0-25-11L296 775q-10-11-10-25V479L11 204q-18-17-8-39 9-22 33-22h714q23 0 33 22z"/></symbol>
<symbol id="forward" viewBox="0 0 1000 1000"><path d="M1000 357q0 15-11 25L704 668q-11 11-25 11t-25-11-11-25V500H518q-55 0-98 3t-86 12-74 24-59 39-45 56-27 77-10 101q0 31 3 69 0 4 2 13t1 15q0 8-5 14t-13 6q-9 0-15-10-4-5-8-12t-7-17-6-13Q0 718 0 625q0-111 30-186 90-225 488-225h125V71q0-14 11-25t25-10 25 10l285 286q11 11 11 25z"/></symbol>
<symbol id="hammer" viewBox="0 0 1000 1000"><path d="M988 857q0 30-20 50l-60 61q-22 20-51 20t-50-20L604 764q-21-20-21-50 0-29 24-53L464 518l-70 70q-8 8-19 8t-19-8l7 7 7 7 6 6q5 5 5 8t4 8 3 9 0 10q0 21-15 38-2 1-9 10t-11 11-10 9-13 9-12 5-14 3q-23 0-38-16L38 484q-16-15-16-38 0-7 3-14t5-12 9-13 9-10 11-11 10-9q17-15 38-15h10q4 0 9 3t8 4 8 5 6 6 7 7 7 7q-8-8-8-19t8-19l194-194q8-8 19-8t19 8l-7-7-7-7q-1-1-6-7t-5-7-3-8-4-9 0-10q0-21 15-38 2-2 9-10t11-11 10-10 13-8 12-5 14-3q23 0 38 16l228 228q16 15 16 38 0 7-3 14t-5 12-8 13-10 10-11 11-10 9q-17 15-38 15h-10q-4 0-9-4t-8-3-7-5-7-6-7-7-7-7q8 8 8 19t-8 19l-70 70 143 143q24-24 53-24t51 21l203 202q20 22 20 51z"/></symbol>
<symbol id="heart" viewBox="0 0 1000 1000"><path d="M500 929q-14 0-25-10L127 583l-15-15q-10-10-31-37t-38-54-30-67-13-77q0-123 71-192t196-70q34 0 70 12t67 33 54 38 42 38q20-20 42-38t54-38 67-33 70-12q125 0 196 70t71 192q0 123-128 251L525 919q-10 10-25 10z"/></symbol>
<symbol id="help-circled" viewBox="0 0 857.1 1000"><path d="M500 768V661q0-8-5-13t-13-5H375q-8 0-13 5t-5 13v107q0 8 5 13t13 5h107q8 0 13-5t5-13zm143-375q0-49-31-91t-77-65-95-23q-136 0-207 119-9 13 4 24l74 55q4 4 10 4 9 0 14-7 30-38 48-51 19-14 48-14 27 0 48 15t21 33q0 21-11 34t-38 25q-35 15-65 48t-29 70v20q0 8 5 13t13 5h107q8 0 13-5t5-13q0-10 12-27t30-28q18-10 28-16t25-19 25-27 16-34 7-45zm214 107q0 117-57 215T644 871t-215 58-216-58T58 715 0 500t58-215 155-156 216-58 215 58 156 156 57 215z"/></symbol>
<symbol id="home" viewBox="0 0 928.6 1000"><path d="M786 554v267q0 15-11 25t-25 11H536V643H393v214H179q-15 0-25-11t-11-25V554v-2-2l321-264 321 264q1 1 1 4zm124-39l-34 41q-5 5-12 6h-2q-7 0-12-3L464 237 78 559q-7 4-13 3-7-1-12-6l-35-41q-4-6-3-13t6-12l401-334q18-15 42-15t43 15l136 113V161q0-8 5-13t13-5h107q8 0 13 5t5 13v227l122 102q6 4 6 12t-4 13z"/></symbol>
<symbol id="info-circled" viewBox="0 0 857.1 1000"><path d="M571 768v-89q0-8-5-13t-12-5h-54V375q0-8-5-13t-13-5H304q-8 0-13 5t-5 13v89q0 8 5 13t13 5h53v179h-53q-8 0-13 5t-5 13v89q0 8 5 13t13 5h250q7 0 12-5t5-13zm-71-500v-89q0-8-5-13t-13-5H375q-8 0-13 5t-5 13v89q0 8 5 13t13 5h107q8 0 13-5t5-13zm357 232q0 117-57 215T644 871t-215 58-216-58T58 715 0 500t58-215 155-156 216-58 215 58 156 156 57 215z"/></symbol>
<symbol id="left-small" viewBox="0 0 646 1000"><path d="M595 447q21 0 36 16t15 37-15 37-36 15H200l119 119q15 15 15 37t-15 37-36 15q-23 0-38-15L0 500l245-245q15-15 37-15t37 15 15 37-15 37L200 447h395z"/></symbol>
<symbol id="link" viewBox="0 0 928.6 1000"><path d="M813 679q0-23-16-38L681 525q-16-16-38-16-24 0-40 18l10 10 12 12q3 3 9 11t7 14 2 15q0 23-16 38t-38 16q-8 0-15-2t-14-7-11-9-12-12-10-10q-19 17-19 40t16 38l115 116q15 15 38 15 22 0 38-15l82-81q16-16 16-37zM420 285q0-22-15-38L290 132q-16-16-38-16t-38 15l-82 82q-16 15-16 37t16 38l116 116q15 15 38 15t40-17l-11-11-12-12q-3-3-8-10t-7-14-2-16q0-22 15-38t38-15q9 0 16 2t14 7 11 8 12 12 10 11q18-17 18-41zm500 394q0 66-48 113l-82 81q-46 47-113 47-68 0-114-48L448 757q-46-47-46-114 0-68 49-116l-49-49q-48 49-116 49-67 0-114-47L56 364Q9 317 9 250t47-113l82-82Q185 9 252 9t114 47l115 116q46 46 46 113 0 69-49 117l49 49q48-49 116-49 67 0 114 47l116 116q47 47 47 114z"/></symbol>
<symbol id="lock-open" viewBox="0 0 928.6 1000"><path d="M929 321v143q0 15-11 25t-25 11h-36q-14 0-25-11t-11-25V321q0-59-41-101t-101-41-101 41-42 101v108h53q23 0 38 15t16 38v322q0 22-16 37t-38 16H54q-23 0-38-16T0 804V482q0-22 16-38t38-15h375V321q0-103 73-176t177-74 176 74 74 176z"/></symbol>
<symbol id="lock" viewBox="0 0 642.9 1000"><path d="M179 429h285V321q0-59-42-101t-101-41-101 41-41 101v108zm464 53v322q0 22-16 37t-38 16H54q-23 0-38-16T0 804V482q0-22 16-38t38-15h17V321q0-102 74-176t176-74 177 74 73 176v108h18q23 0 38 15t16 38z"/></symbol>
<symbol id="logout" viewBox="0 0 928.6 1000"><path d="M357 804q0 2 1 11t0 14-2 14-5 11-12 3H161q-67 0-114-47T0 696V304q0-67 47-114t114-47h178q8 0 13 5t5 13q0 2 1 11t0 15-2 13-5 11-12 3H161q-37 0-63 26t-27 64v392q0 37 27 63t63 27h180l7 2 4 3 4 5 1 8zm518-304q0 14-11 25L561 829q-11 10-25 10t-25-10-11-25V643H250q-14 0-25-11t-11-25V393q0-15 11-25t25-11h250V196q0-14 11-25t25-10 25 10l303 304q11 10 11 25z"/></symbol>
<symbol id="mail" viewBox="0 0 1000 1000"><path d="M929 839V411q-18 20-39 36-149 115-238 189-28 24-46 37t-48 28-57 13h-2q-26 0-57-13t-48-28-46-37q-88-74-238-189-21-16-39-36v428q0 7 6 13t12 5h822q7 0 12-5t6-13zm0-586v-14l-1-7-1-7-3-5-5-4-8-2H89q-7 0-12 6t-6 12q0 94 83 159 107 84 223 176 4 3 20 17t25 21 25 17 28 16 24 5h2q11 0 24-5t28-16 25-17 25-21 20-17q116-92 224-176 30-24 56-65t26-73zm71-21v607q0 37-26 63t-63 27H89q-36 0-63-27T0 839V232q0-37 26-63t63-26h822q37 0 63 26t26 63z"/></symbol>
<symbol id="menu" viewBox="0 0 857.1 1000"><path d="M857 750v71q0 15-10 25t-26 11H36q-15 0-25-11T0 821v-71q0-15 11-25t25-11h785q15 0 26 11t10 25zm0-286v72q0 14-10 25t-26 10H36q-15 0-25-10T0 536v-72q0-14 11-25t25-10h785q15 0 26 10t10 25zm0-285v71q0 14-10 25t-26 11H36q-15 0-25-11T0 250v-71q0-15 11-26t25-10h785q15 0 26 10t10 26z"/></symbol>
<symbol id="moon-inv" viewBox="0 0 928 1000"><path d="M706 672q105 0 205-56-42 145-162 238t-275 93q-188 0-322-134T18 490q0-154 93-274T348 53q-56 100-56 205 0 172 122 293t292 121z"/></symbol>
<symbol id="ok-circled" viewBox="0 0 857.1 1000"><path d="M717 410q0-16-10-26l-51-50q-11-11-25-11t-25 11L378 561 252 435q-11-11-25-11t-25 11l-51 50q-10 10-10 26 0 15 10 25l202 202q10 10 25 10t26-10l303-303q10-10 10-25zm140 90q0 117-57 215T644 871t-215 58-216-58T58 715 0 500t58-215 155-156 216-58 215 58 156 156 57 215z"/></symbol>
<symbol id="ok" viewBox="0 0 1000 1000"><path d="M933 316q0 22-16 38L513 758l-76 76q-16 15-38 15t-38-15l-76-76L83 556q-15-16-15-38t15-38l76-76q16-16 38-16t38 16l164 165 366-367q16-16 38-16t38 16l76 76q16 15 16 38z"/></symbol>
<symbol id="pencil" viewBox="0 0 857.1 1000"><path d="M203 857l50-51-131-131-51 51v60h72v71h60zm291-518q0-12-12-12-5 0-9 4L170 633q-4 4-4 10 0 12 13 12 5 0 9-4l303-302q3-4 3-10zm-30-107l232 232-464 465H0V696zm381 54q0 29-20 50l-93 93-232-233 93-92q20-21 50-21 29 0 51 21l131 131q20 22 20 51z"/></symbol>
<symbol id="pin-outline" viewBox="0 0 886 1000"><path d="M856 296q30 30 30 73t-30 75q-16 16-36 24-106 51-144 125-51 102-51 246 0 45-29 74t-75 30q-47 0-75-30L279 744 0 943l199-279L30 496q-20-18-27-49t5-64q27-65 96-65 146 0 246-50l11-7q69-37 118-141 7-20 21-34 30-30 74-29t74 31zM583 546q53-107 196-175L574 160q-69 146-176 200l-13 6q-120 57-281 57l416 416q0-168 63-293z"/></symbol>
<symbol id="pin" viewBox="0 0 834 1000"><path d="M573 813q0 23-15 38t-37 15q-21 0-37-16L315 681 0 917l236-315L68 433q-24-23-12-56 14-32 48-32 157 0 270-57 90-45 151-171 9-24 36-32t50 13l208 209q21 23 14 50t-32 36q-127 63-172 152-56 110-56 268z"/></symbol>
<symbol id="plus" viewBox="0 0 785.7 1000"><path d="M786 411v107q0 22-16 38t-38 15H500v233q0 22-16 37t-38 16H339q-22 0-38-16t-15-37V571H54q-23 0-38-15T0 518V411q0-23 16-38t38-16h232V125q0-22 15-38t38-16h107q23 0 38 16t16 38v232h232q23 0 38 16t16 38z"/></symbol>
<symbol id="rss-squared" viewBox="0 0 857.1 1000"><path d="M286 714q0-29-21-50t-51-21-50 21-21 50 21 51 50 21 51-21 21-51zm196 53q-8-130-99-222t-221-98q-8-1-14 5t-5 13v71q0 7 5 12t12 6q86 6 147 68t67 147q1 7 6 12t12 5h72q7 0 13-6t5-13zm214 0q-3-86-31-166t-78-145-115-114-145-78-166-31q-7-1-13 5-5 5-5 13v71q0 7 5 12t12 6q114 4 211 62t156 155 62 211q0 8 5 13t13 5h71q7 0 13-6 6-5 5-13zm161-535v536q0 66-47 113t-114 48H161q-67 0-114-48T0 768V232q0-66 47-113t114-48h535q67 0 114 48t47 113z"/></symbol>
<symbol id="search" viewBox="0 0 928.6 1000"><path d="M643 464q0-103-73-176t-177-74-177 74-73 176 73 177 177 73 177-73 73-177zm286 465q0 29-22 50t-50 21q-30 0-50-21L616 788q-100 69-223 69-80 0-153-31t-125-84-84-125T0 464t31-152 84-126 125-84 153-31 153 31 125 84 84 126 31 152q0 123-69 223l191 191q21 21 21 51z"/></symbol>
<symbol id="settings" viewBox="0 0 1071.4 1000"><path d="M500 500q0-59-42-101t-101-42-101 42-42 101 42 101 101 42 101-42 42-101zm429 286q0-29-22-51t-50-21-50 21-21 51q0 29 21 50t50 21 51-21 21-50zm0-572q0-29-22-50t-50-21-50 21-21 50q0 30 21 51t50 21 51-21 21-51zM714 449v103q0 6-4 11t-8 6l-87 14q-6 19-18 42 19 27 50 64 4 6 4 11 0 7-4 11-12 17-46 50t-43 33q-7 0-12-4l-64-50q-21 11-43 17-6 60-13 87-4 13-17 13H305q-6 0-11-4t-5-10l-13-85q-19-6-42-18l-66 50q-4 4-11 4-6 0-12-4-80-75-80-90 0-5 4-10 5-8 23-30t26-34q-13-24-20-46l-85-13q-5-1-9-5t-4-11V447q0-5 4-10t9-6l86-14q7-19 18-42-19-27-50-64-4-6-4-11 0-7 4-12 12-16 46-49t44-33q6 0 12 4l64 50q19-10 43-18 6-60 13-86 3-13 16-13h104q6 0 11 4t6 10l13 85q19 6 42 17l65-49q5-4 12-4 6 0 11 4 81 75 81 90 0 4-4 10-7 9-24 30t-25 34q13 27 19 46l85 12q6 2 9 6t4 11zm357 298v78q0 9-83 17-6 15-16 29 28 63 28 77 0 2-2 4-68 40-69 40-5 0-26-27t-29-37q-11 1-17 1t-17-1q-7 11-29 37t-25 27q-1 0-69-40-3-2-3-4 0-14 29-77-10-14-17-29-83-8-83-17v-78q0-9 83-18 7-16 17-29-29-63-29-77 0-2 3-4 2-1 19-11t33-19 17-9q4 0 25 26t29 38q12-1 17-1t17 1q28-40 51-63l4-1q2 0 69 39 2 2 2 4 0 14-28 77 9 13 16 29 83 9 83 18zm0-572v78q0 9-83 18-6 15-16 29 28 63 28 77 0 2-2 4-68 39-69 39-5 0-26-26t-29-38q-11 1-17 1t-17-1q-7 12-29 38t-25 26q-1 0-69-39-3-2-3-4 0-14 29-77-10-14-17-29-83-9-83-18v-78q0-9 83-17 7-16 17-29-29-63-29-77 0-2 3-4 2-1 19-11t33-19 17-9q4 0 25 26t29 37q12-1 17-1t17 1q28-39 51-62l4-1q2 0 69 39 2 2 2 4 0 14-28 77 9 13 16 29 83 8 83 17z"/></symbol>
<symbol id="sort" viewBox="0 0 571.4 1000"><path d="M571 607q0 15-10 25L311 882q-11 11-25 11t-25-11L11 632Q0 622 0 607t11-25 25-11h500q14 0 25 11t10 25zm0-214q0 14-10 25t-25 11H36q-15 0-25-11T0 393t11-25l250-250q10-11 25-11t25 11l250 250q10 10 10 25z"/></symbol>
<symbol id="spinner" viewBox="0 0 1000 1000"><path d="M294 778q0 29-21 50t-51 21q-29 0-50-21t-21-50q0-30 21-51t50-21 51 21 21 51zm277 115q0 29-20 50t-51 21-50-21-21-50 21-51 50-21 51 21 20 51zM179 500q0 30-21 50t-51 21-50-21-21-50 21-51 50-20 51 20 21 51zm670 278q0 29-21 50t-50 21q-30 0-51-21t-20-50 20-51 51-21 50 21 21 51zM311 222q0 37-26 63t-63 26-63-26-26-63 26-63 63-26 63 26 26 63zm653 278q0 30-21 50t-50 21-51-21-21-50 21-51 51-20 50 20 21 51zM607 107q0 45-31 76t-76 31-76-31-31-76 31-76 76-31 76 31 31 76zm296 115q0 52-37 88t-88 37q-52 0-88-37t-37-88q0-51 37-88t88-37q51 0 88 37t37 88z"/></symbol>
<symbol id="star" viewBox="0 0 928.6 1000"><path d="M929 361q0 12-15 27L712 585l48 279v12q0 11-6 19t-17 9q-10 0-22-7L464 765 214 897q-12 7-23 7t-17-9-6-19q0-4 1-12l48-279L14 388Q0 373 0 361q0-21 31-26l280-40L437 41q11-23 27-23t28 23l125 254 280 40q32 5 32 26z"/></symbol>
<symbol id="sun-inv" viewBox="0 0 928 1000"><path d="M465 276q92 0 158 66t65 158-65 158-158 65-158-65-66-158 66-158 158-66zm56-168q0 24-17 41t-39 16-39-16-17-41 17-39 38-16q24 0 41 16t16 39zM130 220q0-55 56-55 55 0 55 55 0 56-55 56-56 0-56-56zM74 443q23 0 40 16t16 40-16 40-40 16-40-16-16-40q0-24 16-40t40-16zm56 335q0-55 56-55 55 0 55 55 0 56-55 56-56 0-56-56zm279 112q0-22 17-39t38-17q24 0 41 17t16 39-17 40-39 17-39-17-17-40zm296-72q-16-16-16-39t16-39 39-17 40 17 15 39-15 39-40 15-39-15zm151-263q-24 0-40-16t-17-40q0-24 17-40t40-16 39 16 16 40-16 40-39 16zm-72-295q-16 16-40 16t-39-16-16-40 16-40 39-17 40 17 15 40-15 40z"/></symbol>
<symbol id="tag" viewBox="0 0 857.1 1000"><path d="M250 250q0-30-21-51t-50-20-51 20-21 51 21 50 51 21 50-21 21-50zm595 321q0 30-20 51L551 896q-22 21-51 21-30 0-50-21L51 497q-21-21-36-57T0 375V143q0-29 21-50t50-22h233q29 0 65 15t57 36l399 399q20 21 20 50z"/></symbol>
<symbol id="trash" viewBox="0 0 785.7 1000"><path d="M286 768V375q0-8-5-13t-13-5h-36q-8 0-13 5t-5 13v393q0 8 5 13t13 5h36q8 0 13-5t5-13zm143 0V375q0-8-5-13t-13-5h-36q-8 0-13 5t-5 13v393q0 8 5 13t13 5h36q8 0 13-5t5-13zm142 0V375q0-8-5-13t-12-5h-36q-8 0-13 5t-5 13v393q0 8 5 13t13 5h36q7 0 12-5t5-13zM268 214h250l-27-65q-4-5-9-6H305q-6 1-10 6zm518 18v36q0 8-5 13t-13 5h-54v529q0 46-26 80t-63 34H161q-37 0-63-33t-27-79V286H18q-8 0-13-5t-5-13v-36q0-8 5-13t13-5h172l39-93q9-21 31-35t44-15h178q23 0 44 15t30 35l39 93h173q8 0 13 5t5 13z"/></symbol>
<symbol id="unlink" viewBox="0 0 928.6 1000"><path d="M245 709L102 852q-6 5-13 5t-12-5q-6-6-6-13t6-13l142-142q6-5 13-5t13 5q5 5 5 12t-5 13zm94 23v179q0 8-5 13t-13 5-12-5-5-13V732q0-8 5-13t12-5 13 5 5 13zM214 607q0 8-5 13t-13 5H18q-8 0-13-5t-5-13 5-13 13-5h178q8 0 13 5t5 13zm706 72q0 66-48 113l-82 81q-46 47-113 47-68 0-114-48L377 685q-12-12-24-31l134-10 152 153q15 15 38 15t38-15l82-81q16-16 16-37 0-23-16-38L644 487l10-133q20 11 31 23l188 188q47 48 47 114zM575 275l-133 10-152-153q-16-16-38-16t-38 15l-82 82q-16 15-16 37t16 38l153 153-10 134q-20-12-32-24L56 364Q9 316 9 250q0-67 47-113l82-82Q185 9 252 9t114 47l186 187q12 12 23 32zm354 46q0 8-5 13t-13 5H732q-8 0-13-5t-5-13 5-12 13-5h179q8 0 13 5t5 12zM625 18v178q0 8-5 13t-13 5-13-5-5-13V18q0-8 5-13t13-5 13 5 5 13zm227 84L709 245q-6 5-13 5t-12-5q-5-6-5-13t5-13L827 76q5-5 12-5t13 5q5 6 5 13t-5 13z"/></symbol>
<symbol id="up" viewBox="0 0 928 1000"><path d="M18 498L464 53l447 445-159 159-176-177v467H353V480L176 657z"/></symbol>
<symbol id="user-times" viewBox="0 0 1142.9 1000"><path d="M393 500q-89 0-152-63t-62-151 62-152 152-63 151 63 63 152-63 151-151 63zm601 179l139 138q5 5 5 13t-5 13l-76 76q-5 5-12 5-8 0-13-5L893 780 754 919q-5 5-13 5-7 0-12-5l-76-76q-5-5-5-13t5-13l139-138-139-139q-5-5-5-13t5-13l76-75q5-5 12-5 8 0 13 5l139 139 139-139q5-5 13-5 7 0 12 5l76 75q5 5 5 13t-5 13zm-278 0L615 780q-21 20-21 50t21 51l46 46q-11 2-24 2H149q-67 0-108-39T0 784q0-30 2-58t8-61 15-60 24-55 34-45 48-30 62-11q11 0 22 10 86 68 178 68t178-68q11-10 22-10 15 0 31 4-15 15-22 27t-8 32q0 30 21 51z"/></symbol>
<symbol id="user" viewBox="0 0 714.3 1000"><path d="M714 781q0 60-35 104t-84 44H119q-49 0-84-44T0 781q0-48 5-90t17-85 33-73 52-50 76-19q73 72 174 72t175-72q42 0 75 19t52 50 33 73 18 85 4 90zM571 286q0 88-62 151t-152 63-151-63-63-151 63-152 151-63 152 63 62 152z"/></symbol>
<symbol id="wrench" viewBox="0 0 928.6 1000"><path d="M214 821q0-14-10-25t-25-10-25 10-11 25 11 25 25 11 25-11 10-25zm360-234L193 968q-21 20-50 20t-51-20l-59-61q-21-20-21-50 0-29 21-51l380-380q22 55 64 97t97 64zm354-243q0 22-13 59-27 75-92 122t-144 46q-104 0-177-73t-73-177 73-176 177-74q32 0 67 10t60 26q9 6 9 15t-9 16l-163 94v125l108 60q2-2 44-27t75-45 40-20q8 0 13 5t5 14z"/></symbol>
</defs></svg>
